STARTFONT 2.1
FONT -FontForge-Monoton-Book-R-Normal--10-100-72-72-P-67-ISO10646-1
SIZE 10 72 72
FONTBOUNDINGBOX 19 15 -2 -4
COMMENT "Generated by fontforge, http://fontforge.sourceforge.net"
COMMENT "Copyright (c) 2011 by vernon adams. All rights reserved."
STARTPROPERTIES 40
FOUNDRY "FontForge"
FAMILY_NAME "Monoton"
WEIGHT_NAME "Book"
SLANT "R"
SETWIDTH_NAME "Normal"
ADD_STYLE_NAME ""
PIXEL_SIZE 10
POINT_SIZE 100
RESOLUTION_X 72
RESOLUTION_Y 72
SPACING "P"
AVERAGE_WIDTH 67
CHARSET_REGISTRY "ISO10646"
CHARSET_ENCODING "1"
FONTNAME_REGISTRY ""
CHARSET_COLLECTIONS "ISO8859-2 ISO8859-9 ISO8859-4 ISO10646-1"
FONT_NAME "Monoton-Regular"
FACE_NAME "Monoton"
COPYRIGHT "Copyright (c) 2011 by vernon adams. All rights reserved."
FONT_VERSION "1.000"
FONT_ASCENT 8
FONT_DESCENT 2
UNDERLINE_POSITION 0
UNDERLINE_THICKNESS 1
X_HEIGHT 6
CAP_HEIGHT 7
DEFAULT_CHAR 1
RAW_ASCENT 799
RAW_DESCENT 200
NORM_SPACE 1
RELATIVE_WEIGHT 40
RELATIVE_SETWIDTH 50
SUPERSCRIPT_X 0
SUPERSCRIPT_Y 3
SUPERSCRIPT_SIZE 5
SUBSCRIPT_X 0
SUBSCRIPT_Y 0
SUBSCRIPT_SIZE 5
AVG_LOWERCASE_WIDTH 71
AVG_UPPERCASE_WIDTH 78
ENDPROPERTIES
CHARS 372
STARTCHAR glyph1.dup1
ENCODING 0
SWIDTH 108 0
DWIDTH 1 0
BBX 1 1 0 0
BITMAP
00
ENDCHAR
STARTCHAR uni0002
ENCODING 2
SWIDTH 108 0
DWIDTH 1 0
BBX 1 1 0 0
BITMAP
00
ENDCHAR
STARTCHAR uni0009
ENCODING 9
SWIDTH 108 0
DWIDTH 1 0
BBX 1 1 0 0
BITMAP
00
ENDCHAR
STARTCHAR uni000A
ENCODING 10
SWIDTH 108 0
DWIDTH 1 0
BBX 1 1 0 0
BITMAP
00
ENDCHAR
STARTCHAR uni000D
ENCODING 13
SWIDTH 108 0
DWIDTH 1 0
BBX 1 1 0 0
BITMAP
00
ENDCHAR
STARTCHAR space
ENCODING 32
SWIDTH 108 0
DWIDTH 1 0
BBX 1 1 0 0
BITMAP
00
ENDCHAR
STARTCHAR exclam
ENCODING 33
SWIDTH 336 0
DWIDTH 3 0
BBX 3 8 0 0
BITMAP
E0
E0
E0
E0
E0
E0
00
E0
ENDCHAR
STARTCHAR quotedbl
ENCODING 34
SWIDTH 538 0
DWIDTH 5 0
BBX 5 3 0 5
BITMAP
D8
D8
D8
ENDCHAR
STARTCHAR numbersign
ENCODING 35
SWIDTH 1014 0
DWIDTH 10 0
BBX 10 9 0 -1
BITMAP
1980
3D40
6FC0
1300
3300
5A80
D780
AF00
6600
ENDCHAR
STARTCHAR dollar
ENCODING 36
SWIDTH 686 0
DWIDTH 7 0
BBX 7 11 0 -1
BITMAP
30
00
7E
F4
A8
74
6C
1E
7C
F4
08
ENDCHAR
STARTCHAR percent
ENCODING 37
SWIDTH 1504 0
DWIDTH 15 0
BBX 15 9 0 -1
BITMAP
7CC0
FD80
AD98
DDEC
757A
1B6A
035E
033C
0600
ENDCHAR
STARTCHAR ampersand
ENCODING 38
SWIDTH 1029 0
DWIDTH 10 0
BBX 10 8 0 0
BITMAP
7E80
5E80
A280
DEC0
FEC0
E280
DD40
7DC0
ENDCHAR
STARTCHAR quotesingle
ENCODING 39
SWIDTH 257 0
DWIDTH 3 0
BBX 2 3 0 5
BITMAP
C0
C0
C0
ENDCHAR
STARTCHAR parenleft
ENCODING 40
SWIDTH 410 0
DWIDTH 4 0
BBX 4 9 0 -1
BITMAP
70
70
A0
A0
A0
A0
D0
60
30
ENDCHAR
STARTCHAR parenright
ENCODING 41
SWIDTH 408 0
DWIDTH 4 0
BBX 4 9 0 -1
BITMAP
E0
F0
50
50
50
50
D0
60
C0
ENDCHAR
STARTCHAR asterisk
ENCODING 42
SWIDTH 664 0
DWIDTH 7 0
BBX 6 6 0 1
BITMAP
30
FC
74
BC
FC
30
ENDCHAR
STARTCHAR plus
ENCODING 43
SWIDTH 601 0
DWIDTH 6 0
BBX 6 4 0 2
BITMAP
50
DC
DC
50
ENDCHAR
STARTCHAR comma
ENCODING 44
SWIDTH 252 0
DWIDTH 3 0
BBX 2 3 0 -1
BITMAP
C0
C0
C0
ENDCHAR
STARTCHAR hyphen
ENCODING 45
SWIDTH 473 0
DWIDTH 5 0
BBX 4 2 0 3
BITMAP
F0
F0
ENDCHAR
STARTCHAR period
ENCODING 46
SWIDTH 255 0
DWIDTH 3 0
BBX 2 2 0 0
BITMAP
C0
C0
ENDCHAR
STARTCHAR slash
ENCODING 47
SWIDTH 447 0
DWIDTH 4 0
BBX 4 9 0 -1
BITMAP
30
30
50
20
60
60
A0
40
C0
ENDCHAR
STARTCHAR zero
ENCODING 48
SWIDTH 843 0
DWIDTH 8 0
BBX 8 8 0 0
BITMAP
7E
5F
E5
A3
A3
77
5E
3E
ENDCHAR
STARTCHAR one
ENCODING 49
SWIDTH 426 0
DWIDTH 4 0
BBX 4 8 0 0
BITMAP
F0
F0
50
50
50
50
50
50
ENDCHAR
STARTCHAR two
ENCODING 50
SWIDTH 583 0
DWIDTH 6 0
BBX 6 8 0 0
BITMAP
F8
F8
1C
38
38
50
F8
F8
ENDCHAR
STARTCHAR three
ENCODING 51
SWIDTH 612 0
DWIDTH 6 0
BBX 6 8 0 0
BITMAP
F8
FC
14
2C
3C
14
FC
F8
ENDCHAR
STARTCHAR four
ENCODING 52
SWIDTH 622 0
DWIDTH 6 0
BBX 6 8 0 0
BITMAP
38
58
70
78
D8
24
FC
08
ENDCHAR
STARTCHAR five
ENCODING 53
SWIDTH 691 0
DWIDTH 7 0
BBX 7 8 0 0
BITMAP
7C
7C
40
5C
5C
0A
7C
FC
ENDCHAR
STARTCHAR six
ENCODING 54
SWIDTH 781 0
DWIDTH 8 0
BBX 8 8 0 0
BITMAP
7E
7C
E4
BA
BE
E7
7E
7E
ENDCHAR
STARTCHAR seven
ENCODING 55
SWIDTH 631 0
DWIDTH 6 0
BBX 6 8 0 0
BITMAP
FC
F4
18
14
38
28
30
28
ENDCHAR
STARTCHAR eight
ENCODING 56
SWIDTH 808 0
DWIDTH 8 0
BBX 8 8 0 0
BITMAP
7E
FF
A5
7B
47
BD
7F
7E
ENDCHAR
STARTCHAR nine
ENCODING 57
SWIDTH 782 0
DWIDTH 8 0
BBX 7 8 0 0
BITMAP
7E
FE
A6
FA
7E
06
3A
7E
ENDCHAR
STARTCHAR colon
ENCODING 58
SWIDTH 262 0
DWIDTH 3 0
BBX 2 5 0 1
BITMAP
C0
C0
00
C0
C0
ENDCHAR
STARTCHAR semicolon
ENCODING 59
SWIDTH 261 0
DWIDTH 3 0
BBX 2 6 0 0
BITMAP
C0
C0
00
C0
40
C0
ENDCHAR
STARTCHAR less
ENCODING 60
SWIDTH 670 0
DWIDTH 7 0
BBX 6 8 0 0
BITMAP
04
3C
54
A8
D8
74
1C
04
ENDCHAR
STARTCHAR equal
ENCODING 61
SWIDTH 473 0
DWIDTH 5 0
BBX 4 5 0 1
BITMAP
F0
F0
00
F0
F0
ENDCHAR
STARTCHAR greater
ENCODING 62
SWIDTH 670 0
DWIDTH 7 0
BBX 6 8 0 0
BITMAP
80
70
FC
3C
2C
DC
A0
C0
ENDCHAR
STARTCHAR question
ENCODING 63
SWIDTH 693 0
DWIDTH 7 0
BBX 7 8 0 0
BITMAP
FC
7C
0A
7C
74
68
60
60
ENDCHAR
STARTCHAR at
ENCODING 64
SWIDTH 1076 0
DWIDTH 11 0
BBX 10 10 0 -1
BITMAP
0E00
3780
59C0
77C0
DB40
DB40
76C0
59C0
3E00
0E00
ENDCHAR
STARTCHAR A
ENCODING 65
SWIDTH 936 0
DWIDTH 9 0
BBX 9 8 0 0
BITMAP
1A00
1E00
2E00
3A00
3500
5A80
BF80
E380
ENDCHAR
STARTCHAR B
ENCODING 66
SWIDTH 862 0
DWIDTH 9 0
BBX 8 8 0 0
BITMAP
FE
FF
E5
FB
FF
E3
DF
FE
ENDCHAR
STARTCHAR C
ENCODING 67
SWIDTH 852 0
DWIDTH 9 0
BBX 8 8 0 0
BITMAP
3F
5B
76
A0
A0
72
7D
3E
ENDCHAR
STARTCHAR D
ENCODING 68
SWIDTH 886 0
DWIDTH 9 0
BBX 9 8 0 0
BITMAP
FE00
FF00
E700
E380
E380
E700
FF00
FE00
ENDCHAR
STARTCHAR E
ENCODING 69
SWIDTH 706 0
DWIDTH 7 0
BBX 7 8 0 0
BITMAP
FE
DE
E0
F8
D8
E0
DE
FE
ENDCHAR
STARTCHAR F
ENCODING 70
SWIDTH 683 0
DWIDTH 7 0
BBX 6 8 0 0
BITMAP
FC
DC
E0
DC
E0
FC
E0
E0
ENDCHAR
STARTCHAR G
ENCODING 71
SWIDTH 908 0
DWIDTH 9 0
BBX 9 8 0 0
BITMAP
3F00
5B80
7600
A000
A280
7680
5A80
3E80
ENDCHAR
STARTCHAR H
ENCODING 72
SWIDTH 901 0
DWIDTH 9 0
BBX 9 8 0 0
BITMAP
E380
E380
E380
FF80
DD80
E380
E380
E380
ENDCHAR
STARTCHAR I
ENCODING 73
SWIDTH 338 0
DWIDTH 3 0
BBX 3 8 0 0
BITMAP
E0
E0
E0
E0
E0
E0
E0
E0
ENDCHAR
STARTCHAR J
ENCODING 74
SWIDTH 434 0
DWIDTH 4 0
BBX 4 8 0 0
BITMAP
70
70
70
70
70
70
F0
E0
ENDCHAR
STARTCHAR K
ENCODING 75
SWIDTH 815 0
DWIDTH 8 0
BBX 8 8 0 0
BITMAP
E7
EE
EE
DC
DC
EE
EE
E5
ENDCHAR
STARTCHAR L
ENCODING 76
SWIDTH 604 0
DWIDTH 6 0
BBX 6 8 0 0
BITMAP
E0
E0
E0
E0
E0
E0
DC
FC
ENDCHAR
STARTCHAR M
ENCODING 77
SWIDTH 920 0
DWIDTH 9 0
BBX 9 8 0 0
BITMAP
E380
F380
D680
F680
EE80
DE80
E280
E280
ENDCHAR
STARTCHAR N
ENCODING 78
SWIDTH 877 0
DWIDTH 9 0
BBX 8 8 0 0
BITMAP
F3
F3
FB
DD
DD
EB
E7
E7
ENDCHAR
STARTCHAR O
ENCODING 79
SWIDTH 933 0
DWIDTH 9 0
BBX 9 8 0 0
BITMAP
3F00
5B80
7680
A180
A180
7280
7D00
3E00
ENDCHAR
STARTCHAR P
ENCODING 80
SWIDTH 850 0
DWIDTH 9 0
BBX 8 8 0 0
BITMAP
FE
FD
E3
DF
DB
FE
E0
E0
ENDCHAR
STARTCHAR Q
ENCODING 81
SWIDTH 937 0
DWIDTH 9 0
BBX 9 9 0 -1
BITMAP
3F00
5B80
7680
A180
A580
7A80
7500
2F00
1100
ENDCHAR
STARTCHAR R
ENCODING 82
SWIDTH 843 0
DWIDTH 8 0
BBX 8 8 0 0
BITMAP
FE
FD
E3
DF
E3
DE
E6
E7
ENDCHAR
STARTCHAR S
ENCODING 83
SWIDTH 682 0
DWIDTH 7 0
BBX 7 8 0 0
BITMAP
7E
FC
A0
FC
6C
1E
7C
FC
ENDCHAR
STARTCHAR T
ENCODING 84
SWIDTH 591 0
DWIDTH 6 0
BBX 6 8 0 0
BITMAP
FC
FC
30
30
30
30
30
30
ENDCHAR
STARTCHAR U
ENCODING 85
SWIDTH 905 0
DWIDTH 9 0
BBX 9 8 0 0
BITMAP
E280
E280
E280
E280
E280
7500
5F00
3E00
ENDCHAR
STARTCHAR V
ENCODING 86
SWIDTH 940 0
DWIDTH 9 0
BBX 9 8 0 0
BITMAP
E380
A380
5280
2D00
3A00
3E00
3600
1A00
ENDCHAR
STARTCHAR W
ENCODING 87
SWIDTH 1161 0
DWIDTH 12 0
BBX 11 8 0 0
BITMAP
EE60
6AE0
75A0
6B40
57A0
2D40
3AC0
3B80
ENDCHAR
STARTCHAR X
ENCODING 88
SWIDTH 876 0
DWIDTH 9 0
BBX 9 8 0 0
BITMAP
E700
7E00
5A00
3400
1C00
2E00
7B00
F780
ENDCHAR
STARTCHAR Y
ENCODING 89
SWIDTH 789 0
DWIDTH 8 0
BBX 8 8 0 0
BITMAP
E7
6E
54
3C
2C
18
18
18
ENDCHAR
STARTCHAR Z
ENCODING 90
SWIDTH 854 0
DWIDTH 9 0
BBX 8 8 0 0
BITMAP
FF
FB
0D
1E
6C
F0
7F
FF
ENDCHAR
STARTCHAR bracketleft
ENCODING 91
SWIDTH 320 0
DWIDTH 3 0
BBX 3 9 0 -1
BITMAP
E0
C0
C0
C0
C0
C0
C0
E0
E0
ENDCHAR
STARTCHAR backslash
ENCODING 92
SWIDTH 448 0
DWIDTH 4 0
BBX 4 9 0 -1
BITMAP
C0
40
60
60
60
20
30
30
30
ENDCHAR
STARTCHAR bracketright
ENCODING 93
SWIDTH 319 0
DWIDTH 3 0
BBX 3 9 0 -1
BITMAP
E0
60
60
60
60
60
60
A0
E0
ENDCHAR
STARTCHAR asciicircum
ENCODING 94
SWIDTH 475 0
DWIDTH 5 0
BBX 4 4 0 3
BITMAP
60
70
F0
D0
ENDCHAR
STARTCHAR underscore
ENCODING 95
SWIDTH 511 0
DWIDTH 5 0
BBX 5 2 0 -2
BITMAP
F8
F8
ENDCHAR
STARTCHAR grave
ENCODING 96
SWIDTH 472 0
DWIDTH 5 0
BBX 4 2 0 7
BITMAP
E0
10
ENDCHAR
STARTCHAR a
ENCODING 97
SWIDTH 832 0
DWIDTH 8 0
BBX 8 7 0 0
BITMAP
3E
5A
E5
A5
E7
5F
3F
ENDCHAR
STARTCHAR b
ENCODING 98
SWIDTH 720 0
DWIDTH 7 0
BBX 7 7 0 0
BITMAP
FC
FA
C6
FA
C6
FA
FC
ENDCHAR
STARTCHAR c
ENCODING 99
SWIDTH 736 0
DWIDTH 7 0
BBX 7 7 0 0
BITMAP
7E
5E
E4
A0
E4
5E
3E
ENDCHAR
STARTCHAR d
ENCODING 100
SWIDTH 833 0
DWIDTH 8 0
BBX 8 7 0 0
BITMAP
FC
FA
E5
E7
E5
FA
FC
ENDCHAR
STARTCHAR e
ENCODING 101
SWIDTH 666 0
DWIDTH 7 0
BBX 6 7 0 0
BITMAP
FC
DC
E0
DC
E0
DC
FC
ENDCHAR
STARTCHAR f
ENCODING 102
SWIDTH 625 0
DWIDTH 6 0
BBX 6 7 0 0
BITMAP
FC
DC
E0
DC
DC
E0
E0
ENDCHAR
STARTCHAR g
ENCODING 103
SWIDTH 827 0
DWIDTH 8 0
BBX 8 7 0 0
BITMAP
7E
5E
E4
A7
E7
5F
3F
ENDCHAR
STARTCHAR h
ENCODING 104
SWIDTH 830 0
DWIDTH 8 0
BBX 8 7 0 0
BITMAP
E5
E5
DD
E5
FD
E5
E5
ENDCHAR
STARTCHAR i
ENCODING 105
SWIDTH 337 0
DWIDTH 3 0
BBX 3 7 0 0
BITMAP
E0
E0
E0
E0
E0
E0
E0
ENDCHAR
STARTCHAR j
ENCODING 106
SWIDTH 393 0
DWIDTH 4 0
BBX 4 8 0 -1
BITMAP
70
70
70
70
70
A0
E0
C0
ENDCHAR
STARTCHAR k
ENCODING 107
SWIDTH 801 0
DWIDTH 8 0
BBX 8 7 0 0
BITMAP
EB
EE
EC
DC
EC
EE
EB
ENDCHAR
STARTCHAR l
ENCODING 108
SWIDTH 583 0
DWIDTH 6 0
BBX 6 7 0 0
BITMAP
E0
E0
E0
E0
E0
DC
FC
ENDCHAR
STARTCHAR m
ENCODING 109
SWIDTH 1167 0
DWIDTH 12 0
BBX 11 7 0 0
BITMAP
7FE0
7BE0
E660
A660
A660
A660
A660
ENDCHAR
STARTCHAR n
ENCODING 110
SWIDTH 787 0
DWIDTH 8 0
BBX 7 7 0 0
BITMAP
F2
EA
FA
DA
DE
CE
CE
ENDCHAR
STARTCHAR o
ENCODING 111
SWIDTH 833 0
DWIDTH 8 0
BBX 8 7 0 0
BITMAP
7E
5E
E7
A3
E7
5E
3E
ENDCHAR
STARTCHAR p
ENCODING 112
SWIDTH 781 0
DWIDTH 8 0
BBX 7 7 0 0
BITMAP
FC
FA
E6
FE
DE
E0
E0
ENDCHAR
STARTCHAR q
ENCODING 113
SWIDTH 788 0
DWIDTH 8 0
BBX 7 8 0 -1
BITMAP
3E
DE
E6
A6
7E
5A
26
06
ENDCHAR
STARTCHAR r
ENCODING 114
SWIDTH 831 0
DWIDTH 8 0
BBX 8 7 0 0
BITMAP
FE
FF
E7
FB
DD
EA
E6
ENDCHAR
STARTCHAR s
ENCODING 115
SWIDTH 683 0
DWIDTH 7 0
BBX 7 7 0 0
BITMAP
7E
FC
A0
7C
06
7C
FC
ENDCHAR
STARTCHAR t
ENCODING 116
SWIDTH 588 0
DWIDTH 6 0
BBX 6 7 0 0
BITMAP
FC
FC
30
30
30
30
30
ENDCHAR
STARTCHAR u
ENCODING 117
SWIDTH 795 0
DWIDTH 8 0
BBX 8 7 0 0
BITMAP
E7
E7
E7
E7
F6
6A
7C
ENDCHAR
STARTCHAR v
ENCODING 118
SWIDTH 855 0
DWIDTH 9 0
BBX 8 7 0 0
BITMAP
E3
A5
56
2A
36
2A
1C
ENDCHAR
STARTCHAR w
ENCODING 119
SWIDTH 1129 0
DWIDTH 11 0
BBX 11 7 0 0
BITMAP
EEE0
EEE0
EEE0
EEE0
EAE0
7FE0
7FC0
ENDCHAR
STARTCHAR x
ENCODING 120
SWIDTH 790 0
DWIDTH 8 0
BBX 8 7 0 0
BITMAP
FF
56
2C
38
6C
56
FF
ENDCHAR
STARTCHAR y
ENCODING 121
SWIDTH 733 0
DWIDTH 7 0
BBX 7 7 0 0
BITMAP
AE
74
7C
2C
38
18
18
ENDCHAR
STARTCHAR z
ENCODING 122
SWIDTH 714 0
DWIDTH 7 0
BBX 7 7 0 0
BITMAP
FE
FE
2C
38
70
DE
BE
ENDCHAR
STARTCHAR braceleft
ENCODING 123
SWIDTH 396 0
DWIDTH 4 0
BBX 4 10 0 -2
BITMAP
70
60
60
60
E0
E0
60
60
50
70
ENDCHAR
STARTCHAR bar
ENCODING 124
SWIDTH 266 0
DWIDTH 3 0
BBX 2 9 0 -1
BITMAP
C0
C0
C0
C0
C0
C0
C0
C0
C0
ENDCHAR
STARTCHAR braceright
ENCODING 125
SWIDTH 396 0
DWIDTH 4 0
BBX 4 10 0 -2
BITMAP
E0
60
60
60
30
50
60
60
A0
E0
ENDCHAR
STARTCHAR asciitilde
ENCODING 126
SWIDTH 665 0
DWIDTH 7 0
BBX 6 1 0 6
BITMAP
FC
ENDCHAR
STARTCHAR uni00A0
ENCODING 160
SWIDTH 108 0
DWIDTH 1 0
BBX 1 1 0 0
BITMAP
00
ENDCHAR
STARTCHAR exclamdown
ENCODING 161
SWIDTH 336 0
DWIDTH 3 0
BBX 3 8 0 0
BITMAP
E0
E0
E0
E0
E0
E0
00
E0
ENDCHAR
STARTCHAR cent
ENCODING 162
SWIDTH 708 0
DWIDTH 7 0
BBX 7 10 0 -1
BITMAP
18
18
66
7C
A0
E8
B4
5E
20
18
ENDCHAR
STARTCHAR sterling
ENCODING 163
SWIDTH 689 0
DWIDTH 7 0
BBX 7 8 0 0
BITMAP
7E
7C
E0
DC
FC
E0
DC
FC
ENDCHAR
STARTCHAR currency
ENCODING 164
SWIDTH 715 0
DWIDTH 7 0
BBX 7 8 0 0
BITMAP
44
EA
7C
44
44
4C
BE
44
ENDCHAR
STARTCHAR yen
ENCODING 165
SWIDTH 796 0
DWIDTH 8 0
BBX 8 8 0 0
BITMAP
E7
6E
76
2C
34
18
7E
18
ENDCHAR
STARTCHAR brokenbar
ENCODING 166
SWIDTH 263 0
DWIDTH 3 0
BBX 2 9 0 -1
BITMAP
C0
C0
C0
C0
00
C0
C0
C0
C0
ENDCHAR
STARTCHAR section
ENCODING 167
SWIDTH 108 0
DWIDTH 1 0
BBX 1 1 0 0
BITMAP
00
ENDCHAR
STARTCHAR dieresis
ENCODING 168
SWIDTH 556 0
DWIDTH 6 0
BBX 5 1 0 7
BITMAP
D8
ENDCHAR
STARTCHAR copyright
ENCODING 169
SWIDTH 869 0
DWIDTH 9 0
BBX 8 8 0 0
BITMAP
3E
5F
A1
A1
A1
77
6A
1C
ENDCHAR
STARTCHAR ordfeminine
ENCODING 170
SWIDTH 833 0
DWIDTH 8 0
BBX 8 7 0 0
BITMAP
3E
5A
F5
A7
E7
5F
3F
ENDCHAR
STARTCHAR guillemotleft
ENCODING 171
SWIDTH 911 0
DWIDTH 9 0
BBX 9 5 0 1
BITMAP
1180
EE80
DB00
7780
1080
ENDCHAR
STARTCHAR logicalnot
ENCODING 172
SWIDTH 718 0
DWIDTH 7 0
BBX 7 3 0 2
BITMAP
FA
06
06
ENDCHAR
STARTCHAR registered
ENCODING 174
SWIDTH 869 0
DWIDTH 9 0
BBX 8 8 0 0
BITMAP
3E
59
95
9D
95
55
62
1C
ENDCHAR
STARTCHAR degree
ENCODING 176
SWIDTH 330 0
DWIDTH 3 0
BBX 3 2 0 8
BITMAP
E0
E0
ENDCHAR
STARTCHAR plusminus
ENCODING 177
SWIDTH 598 0
DWIDTH 6 0
BBX 6 6 0 0
BITMAP
50
DC
DC
50
00
78
ENDCHAR
STARTCHAR uni00B2
ENCODING 178
SWIDTH 435 0
DWIDTH 4 0
BBX 4 6 0 2
BITMAP
F0
10
20
20
C0
F0
ENDCHAR
STARTCHAR uni00B3
ENCODING 179
SWIDTH 515 0
DWIDTH 5 0
BBX 5 7 0 1
BITMAP
F0
70
18
78
18
78
F0
ENDCHAR
STARTCHAR acute
ENCODING 180
SWIDTH 472 0
DWIDTH 5 0
BBX 4 2 0 7
BITMAP
30
C0
ENDCHAR
STARTCHAR uni00B5
ENCODING 181
SWIDTH 802 0
DWIDTH 8 0
BBX 8 8 0 -1
BITMAP
E5
E5
E5
E5
EF
F6
DE
E0
ENDCHAR
STARTCHAR paragraph
ENCODING 182
SWIDTH 676 0
DWIDTH 7 0
BBX 6 8 0 -1
BITMAP
7C
5C
AC
DC
74
0C
0C
0C
ENDCHAR
STARTCHAR periodcentered
ENCODING 183
SWIDTH 260 0
DWIDTH 3 0
BBX 2 2 0 4
BITMAP
C0
C0
ENDCHAR
STARTCHAR cedilla
ENCODING 184
SWIDTH 321 0
DWIDTH 3 0
BBX 3 3 0 -4
BITMAP
E0
C0
60
ENDCHAR
STARTCHAR uni00B9
ENCODING 185
SWIDTH 359 0
DWIDTH 4 0
BBX 3 6 0 2
BITMAP
E0
60
60
60
60
60
ENDCHAR
STARTCHAR ordmasculine
ENCODING 186
SWIDTH 835 0
DWIDTH 8 0
BBX 8 7 0 0
BITMAP
3E
5E
E7
A3
E7
5E
3E
ENDCHAR
STARTCHAR guillemotright
ENCODING 187
SWIDTH 912 0
DWIDTH 9 0
BBX 9 5 0 1
BITMAP
C600
B780
6B80
F700
8400
ENDCHAR
STARTCHAR onequarter
ENCODING 188
SWIDTH 1236 0
DWIDTH 12 0
BBX 12 9 0 -1
BITMAP
E600
6660
6660
66C0
6D50
6DF0
0DE0
0C10
1800
ENDCHAR
STARTCHAR onehalf
ENCODING 189
SWIDTH 1154 0
DWIDTH 12 0
BBX 11 9 0 -1
BITMAP
E600
6600
66E0
6620
6C40
6C40
0D80
0DE0
1800
ENDCHAR
STARTCHAR threequarters
ENCODING 190
SWIDTH 1345 0
DWIDTH 13 0
BBX 13 9 0 -1
BITMAP
F180
7130
1AD0
6B70
1BA8
7A78
F570
0608
0600
ENDCHAR
STARTCHAR questiondown
ENCODING 191
SWIDTH 693 0
DWIDTH 7 0
BBX 7 8 0 0
BITMAP
FC
7C
0A
7C
74
68
60
60
ENDCHAR
STARTCHAR Agrave
ENCODING 192
SWIDTH 936 0
DWIDTH 9 0
BBX 9 11 0 0
BITMAP
7000
0C00
0000
1A00
1E00
2E00
3A00
3500
5A80
BF80
E380
ENDCHAR
STARTCHAR Aacute
ENCODING 193
SWIDTH 936 0
DWIDTH 9 0
BBX 9 11 0 0
BITMAP
0700
0C00
0000
1A00
1E00
2E00
3A00
3500
5A80
BF80
E380
ENDCHAR
STARTCHAR Acircumflex
ENCODING 194
SWIDTH 936 0
DWIDTH 9 0
BBX 9 11 0 0
BITMAP
0800
1C00
0000
1A00
1E00
2E00
3A00
3500
5A80
BF80
E380
ENDCHAR
STARTCHAR Atilde
ENCODING 195
SWIDTH 936 0
DWIDTH 9 0
BBX 9 10 0 0
BITMAP
3F00
0000
1A00
1E00
2E00
3A00
3500
5A80
BF80
E380
ENDCHAR
STARTCHAR Adieresis
ENCODING 196
SWIDTH 936 0
DWIDTH 9 0
BBX 9 10 0 0
BITMAP
3600
0000
1A00
1E00
2E00
3A00
3500
5A80
BF80
E380
ENDCHAR
STARTCHAR Aring
ENCODING 197
SWIDTH 936 0
DWIDTH 9 0
BBX 9 11 0 0
BITMAP
1C00
1C00
0000
1A00
1E00
2E00
3A00
3500
5A80
BF80
E380
ENDCHAR
STARTCHAR AE
ENCODING 198
SWIDTH 1198 0
DWIDTH 12 0
BBX 12 8 0 0
BITMAP
1BF0
1FF0
2E00
3BE0
35E0
5B00
BFF0
E3F0
ENDCHAR
STARTCHAR Ccedilla
ENCODING 199
SWIDTH 852 0
DWIDTH 9 0
BBX 8 12 0 -4
BITMAP
3F
5B
76
A0
A0
72
7D
2E
10
1C
10
18
ENDCHAR
STARTCHAR Egrave
ENCODING 200
SWIDTH 706 0
DWIDTH 7 0
BBX 7 11 0 0
BITMAP
E0
10
00
FE
DE
E0
F8
D8
E0
DE
FE
ENDCHAR
STARTCHAR Eacute
ENCODING 201
SWIDTH 706 0
DWIDTH 7 0
BBX 7 11 0 0
BITMAP
0E
10
00
FE
DE
E0
F8
D8
E0
DE
FE
ENDCHAR
STARTCHAR Ecircumflex
ENCODING 202
SWIDTH 706 0
DWIDTH 7 0
BBX 7 11 0 0
BITMAP
10
28
00
FE
DE
E0
F8
D8
E0
DE
FE
ENDCHAR
STARTCHAR Edieresis
ENCODING 203
SWIDTH 706 0
DWIDTH 7 0
BBX 7 10 0 0
BITMAP
6C
00
FE
DE
E0
F8
D8
E0
DE
FE
ENDCHAR
STARTCHAR Igrave
ENCODING 204
SWIDTH 338 0
DWIDTH 3 0
BBX 5 11 -2 0
BITMAP
E0
18
00
38
38
38
38
38
38
38
38
ENDCHAR
STARTCHAR Iacute
ENCODING 205
SWIDTH 338 0
DWIDTH 3 0
BBX 5 11 0 0
BITMAP
38
60
00
E0
E0
E0
E0
E0
E0
E0
E0
ENDCHAR
STARTCHAR Icircumflex
ENCODING 206
SWIDTH 338 0
DWIDTH 3 0
BBX 3 11 0 0
BITMAP
40
E0
00
E0
E0
E0
E0
E0
E0
E0
E0
ENDCHAR
STARTCHAR Idieresis
ENCODING 207
SWIDTH 338 0
DWIDTH 3 0
BBX 5 10 -1 0
BITMAP
D8
00
70
70
70
70
70
70
70
70
ENDCHAR
STARTCHAR Eth
ENCODING 208
SWIDTH 905 0
DWIDTH 9 0
BBX 9 8 0 0
BITMAP
FE00
7F00
6500
9280
F280
6700
7F00
FE00
ENDCHAR
STARTCHAR Ntilde
ENCODING 209
SWIDTH 877 0
DWIDTH 9 0
BBX 8 10 0 0
BITMAP
7F
02
F3
F3
FB
DD
DD
EB
E7
E7
ENDCHAR
STARTCHAR Ograve
ENCODING 210
SWIDTH 933 0
DWIDTH 9 0
BBX 9 11 0 0
BITMAP
7000
0C00
0000
3F00
5B80
7680
A180
A180
7280
7D00
3E00
ENDCHAR
STARTCHAR Oacute
ENCODING 211
SWIDTH 933 0
DWIDTH 9 0
BBX 9 11 0 0
BITMAP
0700
0C00
0000
3F00
5B80
7680
A180
A180
7280
7D00
3E00
ENDCHAR
STARTCHAR Ocircumflex
ENCODING 212
SWIDTH 933 0
DWIDTH 9 0
BBX 9 11 0 0
BITMAP
0800
1C00
0000
3F00
5B80
7680
A180
A180
7280
7D00
3E00
ENDCHAR
STARTCHAR Otilde
ENCODING 213
SWIDTH 933 0
DWIDTH 9 0
BBX 9 10 0 0
BITMAP
7F00
2000
3F00
5B80
7680
A180
A180
7280
7D00
3E00
ENDCHAR
STARTCHAR Odieresis
ENCODING 214
SWIDTH 933 0
DWIDTH 9 0
BBX 9 10 0 0
BITMAP
3600
0000
3F00
5B80
7680
A180
A180
7280
7D00
3E00
ENDCHAR
STARTCHAR multiply
ENCODING 215
SWIDTH 790 0
DWIDTH 8 0
BBX 8 7 0 0
BITMAP
FF
56
2C
38
6C
56
FF
ENDCHAR
STARTCHAR Oslash
ENCODING 216
SWIDTH 938 0
DWIDTH 9 0
BBX 9 12 0 -2
BITMAP
0200
0300
3F00
5D00
7280
A180
A180
6280
5D00
2E00
7000
2000
ENDCHAR
STARTCHAR Ugrave
ENCODING 217
SWIDTH 905 0
DWIDTH 9 0
BBX 9 11 0 0
BITMAP
7000
0800
0000
E280
E280
E280
E280
E280
7500
5F00
3E00
ENDCHAR
STARTCHAR Uacute
ENCODING 218
SWIDTH 905 0
DWIDTH 9 0
BBX 9 11 0 0
BITMAP
0700
0800
0000
E280
E280
E280
E280
E280
7500
5F00
3E00
ENDCHAR
STARTCHAR Ucircumflex
ENCODING 219
SWIDTH 905 0
DWIDTH 9 0
BBX 9 11 0 0
BITMAP
0800
1400
0000
E280
E280
E280
E280
E280
7500
5F00
3E00
ENDCHAR
STARTCHAR Udieresis
ENCODING 220
SWIDTH 905 0
DWIDTH 9 0
BBX 9 10 0 0
BITMAP
3600
0000
E280
E280
E280
E280
E280
7500
5F00
3E00
ENDCHAR
STARTCHAR Yacute
ENCODING 221
SWIDTH 789 0
DWIDTH 8 0
BBX 8 11 0 0
BITMAP
0E
18
00
E7
6E
54
3C
2C
18
18
18
ENDCHAR
STARTCHAR Thorn
ENCODING 222
SWIDTH 798 0
DWIDTH 8 0
BBX 8 9 0 -1
BITMAP
D8
DE
FE
E5
E5
FF
DE
E0
E0
ENDCHAR
STARTCHAR germandbls
ENCODING 223
SWIDTH 826 0
DWIDTH 8 0
BBX 8 9 0 -1
BITMAP
7E
7F
E5
DE
DF
E5
DB
FE
E0
ENDCHAR
STARTCHAR agrave
ENCODING 224
SWIDTH 832 0
DWIDTH 8 0
BBX 8 10 0 0
BITMAP
70
18
10
2E
5A
E5
A5
E7
5F
3F
ENDCHAR
STARTCHAR aacute
ENCODING 225
SWIDTH 832 0
DWIDTH 8 0
BBX 8 10 0 0
BITMAP
0E
18
10
2E
5A
E5
A5
E7
5F
3F
ENDCHAR
STARTCHAR acircumflex
ENCODING 226
SWIDTH 832 0
DWIDTH 8 0
BBX 8 10 0 0
BITMAP
18
18
14
2E
5A
E5
A5
E7
5F
3F
ENDCHAR
STARTCHAR atilde
ENCODING 227
SWIDTH 832 0
DWIDTH 8 0
BBX 8 9 0 0
BITMAP
7E
10
2E
5A
E5
A5
E7
5F
3F
ENDCHAR
STARTCHAR adieresis
ENCODING 228
SWIDTH 832 0
DWIDTH 8 0
BBX 8 9 0 0
BITMAP
24
10
2E
5A
E5
A5
E7
5F
3F
ENDCHAR
STARTCHAR aring
ENCODING 229
SWIDTH 832 0
DWIDTH 8 0
BBX 8 10 0 0
BITMAP
18
18
10
2E
5A
E5
A5
E7
5F
3F
ENDCHAR
STARTCHAR ae
ENCODING 230
SWIDTH 1166 0
DWIDTH 12 0
BBX 11 7 0 0
BITMAP
3FE0
5AE0
E500
A5E0
E700
5EE0
3FE0
ENDCHAR
STARTCHAR ccedilla
ENCODING 231
SWIDTH 736 0
DWIDTH 7 0
BBX 7 11 0 -4
BITMAP
7E
5E
E4
A0
E4
5E
3E
00
38
20
18
ENDCHAR
STARTCHAR egrave
ENCODING 232
SWIDTH 666 0
DWIDTH 7 0
BBX 6 10 0 0
BITMAP
E0
30
00
FC
DC
E0
DC
E0
DC
FC
ENDCHAR
STARTCHAR eacute
ENCODING 233
SWIDTH 666 0
DWIDTH 7 0
BBX 7 10 0 0
BITMAP
0E
10
00
FC
DC
E0
DC
E0
DC
FC
ENDCHAR
STARTCHAR ecircumflex
ENCODING 234
SWIDTH 666 0
DWIDTH 7 0
BBX 6 10 0 0
BITMAP
30
38
00
FC
DC
E0
DC
E0
DC
FC
ENDCHAR
STARTCHAR edieresis
ENCODING 235
SWIDTH 666 0
DWIDTH 7 0
BBX 6 9 0 0
BITMAP
6C
00
FC
DC
E0
DC
E0
DC
FC
ENDCHAR
STARTCHAR igrave
ENCODING 236
SWIDTH 337 0
DWIDTH 3 0
BBX 5 10 -2 0
BITMAP
E0
18
00
38
38
38
38
38
38
38
ENDCHAR
STARTCHAR iacute
ENCODING 237
SWIDTH 337 0
DWIDTH 3 0
BBX 5 10 0 0
BITMAP
38
60
00
E0
E0
E0
E0
E0
E0
E0
ENDCHAR
STARTCHAR icircumflex
ENCODING 238
SWIDTH 337 0
DWIDTH 3 0
BBX 3 10 0 0
BITMAP
40
E0
00
E0
E0
E0
E0
E0
E0
E0
ENDCHAR
STARTCHAR idieresis
ENCODING 239
SWIDTH 337 0
DWIDTH 3 0
BBX 5 9 -1 0
BITMAP
D8
00
70
70
70
70
70
70
70
ENDCHAR
STARTCHAR eth
ENCODING 240
SWIDTH 783 0
DWIDTH 8 0
BBX 7 8 0 0
BITMAP
7E
3E
06
7E
FA
A6
FA
7E
ENDCHAR
STARTCHAR ntilde
ENCODING 241
SWIDTH 787 0
DWIDTH 8 0
BBX 7 9 0 0
BITMAP
7E
00
F2
EA
FA
DA
DE
CE
CE
ENDCHAR
STARTCHAR ograve
ENCODING 242
SWIDTH 833 0
DWIDTH 8 0
BBX 8 10 0 0
BITMAP
70
18
00
7E
5E
E7
A3
E7
5E
3E
ENDCHAR
STARTCHAR oacute
ENCODING 243
SWIDTH 833 0
DWIDTH 8 0
BBX 8 10 0 0
BITMAP
0E
1C
00
7E
5E
E7
A3
E7
5E
3E
ENDCHAR
STARTCHAR ocircumflex
ENCODING 244
SWIDTH 833 0
DWIDTH 8 0
BBX 8 10 0 0
BITMAP
18
18
04
7E
5E
E7
A3
E7
5E
3E
ENDCHAR
STARTCHAR otilde
ENCODING 245
SWIDTH 833 0
DWIDTH 8 0
BBX 8 9 0 0
BITMAP
7E
00
7E
5E
E7
A3
E7
5E
3E
ENDCHAR
STARTCHAR odieresis
ENCODING 246
SWIDTH 833 0
DWIDTH 8 0
BBX 8 9 0 0
BITMAP
36
00
7E
5E
E7
A3
E7
5E
3E
ENDCHAR
STARTCHAR divide
ENCODING 247
SWIDTH 260 0
DWIDTH 3 0
BBX 3 6 0 0
BITMAP
A0
A0
40
E0
A0
A0
ENDCHAR
STARTCHAR oslash
ENCODING 248
SWIDTH 832 0
DWIDTH 8 0
BBX 8 9 0 -1
BITMAP
06
7A
5E
A7
A3
E5
7E
5E
20
ENDCHAR
STARTCHAR ugrave
ENCODING 249
SWIDTH 795 0
DWIDTH 8 0
BBX 8 10 0 0
BITMAP
70
18
00
E7
E7
E7
E7
F6
6A
7C
ENDCHAR
STARTCHAR uacute
ENCODING 250
SWIDTH 795 0
DWIDTH 8 0
BBX 8 10 0 0
BITMAP
0E
18
00
E7
E7
E7
E7
F6
6A
7C
ENDCHAR
STARTCHAR ucircumflex
ENCODING 251
SWIDTH 795 0
DWIDTH 8 0
BBX 8 10 0 0
BITMAP
18
18
20
E7
E7
E7
E7
F6
6A
7C
ENDCHAR
STARTCHAR udieresis
ENCODING 252
SWIDTH 795 0
DWIDTH 8 0
BBX 8 9 0 0
BITMAP
24
00
E7
E7
E7
E7
F6
6A
7C
ENDCHAR
STARTCHAR yacute
ENCODING 253
SWIDTH 733 0
DWIDTH 7 0
BBX 7 10 0 0
BITMAP
0E
18
00
AE
74
7C
2C
38
18
18
ENDCHAR
STARTCHAR thorn
ENCODING 254
SWIDTH 833 0
DWIDTH 8 0
BBX 8 9 0 -1
BITMAP
E0
E0
FE
DF
FF
E3
DF
D8
E0
ENDCHAR
STARTCHAR ydieresis
ENCODING 255
SWIDTH 733 0
DWIDTH 7 0
BBX 7 9 0 0
BITMAP
6C
00
AE
74
7C
2C
38
18
18
ENDCHAR
STARTCHAR Amacron
ENCODING 256
SWIDTH 936 0
DWIDTH 9 0
BBX 9 8 0 0
BITMAP
1A00
1E00
2E00
3A00
3500
5A80
BF80
E380
ENDCHAR
STARTCHAR amacron
ENCODING 257
SWIDTH 832 0
DWIDTH 8 0
BBX 8 7 0 0
BITMAP
3E
5A
E5
A5
E7
5F
3F
ENDCHAR
STARTCHAR Abreve
ENCODING 258
SWIDTH 936 0
DWIDTH 9 0
BBX 9 10 0 0
BITMAP
1C00
0000
1A00
1E00
2E00
3A00
3500
5A80
BF80
E380
ENDCHAR
STARTCHAR abreve
ENCODING 259
SWIDTH 832 0
DWIDTH 8 0
BBX 8 9 0 0
BITMAP
1C
10
2E
5A
E5
A5
E7
5F
3F
ENDCHAR
STARTCHAR Aogonek
ENCODING 260
SWIDTH 937 0
DWIDTH 9 0
BBX 9 11 0 -3
BITMAP
1C00
3A00
3E00
2A00
3700
5B00
BE80
E380
1800
1800
1800
ENDCHAR
STARTCHAR aogonek
ENCODING 261
SWIDTH 832 0
DWIDTH 8 0
BBX 8 10 0 -3
BITMAP
3E
5A
E5
A5
E7
5F
2F
30
30
30
ENDCHAR
STARTCHAR Cacute
ENCODING 262
SWIDTH 852 0
DWIDTH 9 0
BBX 8 11 0 0
BITMAP
07
0C
00
3F
5B
76
A0
A0
72
7D
3E
ENDCHAR
STARTCHAR cacute
ENCODING 263
SWIDTH 736 0
DWIDTH 7 0
BBX 7 10 0 0
BITMAP
0E
1C
00
7E
5E
E4
A0
E4
5E
3E
ENDCHAR
STARTCHAR Cdotaccent
ENCODING 266
SWIDTH 852 0
DWIDTH 9 0
BBX 8 11 0 0
BITMAP
0C
0C
00
3F
5B
76
A0
A0
72
7D
3E
ENDCHAR
STARTCHAR cdotaccent
ENCODING 267
SWIDTH 736 0
DWIDTH 7 0
BBX 7 10 0 0
BITMAP
18
18
00
7E
5E
E4
A0
E4
5E
3E
ENDCHAR
STARTCHAR Ccaron
ENCODING 268
SWIDTH 852 0
DWIDTH 9 0
BBX 8 11 0 0
BITMAP
14
0C
00
3F
5B
76
A0
A0
72
7D
3E
ENDCHAR
STARTCHAR ccaron
ENCODING 269
SWIDTH 736 0
DWIDTH 7 0
BBX 7 10 0 0
BITMAP
3C
18
00
7E
5E
E4
A0
E4
5E
3E
ENDCHAR
STARTCHAR Dcaron
ENCODING 270
SWIDTH 886 0
DWIDTH 9 0
BBX 9 11 0 0
BITMAP
1400
0800
0000
FE00
FF00
E700
E380
E380
E700
FF00
FE00
ENDCHAR
STARTCHAR dcaron
ENCODING 271
SWIDTH 1084 0
DWIDTH 11 0
BBX 11 8 0 0
BITMAP
0060
FC60
FA40
E500
E700
E500
FA00
FC00
ENDCHAR
STARTCHAR Dcroat
ENCODING 272
SWIDTH 888 0
DWIDTH 9 0
BBX 9 8 0 0
BITMAP
FE00
FF00
E700
F380
D380
E700
FF00
FE00
ENDCHAR
STARTCHAR dcroat
ENCODING 273
SWIDTH 833 0
DWIDTH 8 0
BBX 8 7 0 0
BITMAP
FC
FA
E5
F7
E5
FA
FC
ENDCHAR
STARTCHAR Emacron
ENCODING 274
SWIDTH 706 0
DWIDTH 7 0
BBX 7 8 0 0
BITMAP
FE
DE
E0
F8
D8
E0
DE
FE
ENDCHAR
STARTCHAR emacron
ENCODING 275
SWIDTH 666 0
DWIDTH 7 0
BBX 6 7 0 0
BITMAP
FC
DC
E0
DC
E0
DC
FC
ENDCHAR
STARTCHAR Ebreve
ENCODING 276
SWIDTH 706 0
DWIDTH 7 0
BBX 7 10 0 0
BITMAP
38
00
FE
DE
E0
F8
D8
E0
DE
FE
ENDCHAR
STARTCHAR ebreve
ENCODING 277
SWIDTH 666 0
DWIDTH 7 0
BBX 6 9 0 0
BITMAP
38
00
FC
DC
E0
DC
E0
DC
FC
ENDCHAR
STARTCHAR Edotaccent
ENCODING 278
SWIDTH 706 0
DWIDTH 7 0
BBX 7 11 0 0
BITMAP
10
10
00
FE
DE
E0
F8
D8
E0
DE
FE
ENDCHAR
STARTCHAR edotaccent
ENCODING 279
SWIDTH 666 0
DWIDTH 7 0
BBX 6 10 0 0
BITMAP
30
30
00
FC
DC
E0
DC
E0
DC
FC
ENDCHAR
STARTCHAR Eogonek
ENCODING 280
SWIDTH 706 0
DWIDTH 7 0
BBX 7 11 0 -3
BITMAP
FE
DE
E0
F8
D8
E0
DE
F8
06
06
06
ENDCHAR
STARTCHAR eogonek
ENCODING 281
SWIDTH 666 0
DWIDTH 7 0
BBX 6 10 0 -3
BITMAP
FC
DC
E0
DC
E0
DC
F0
0C
04
04
ENDCHAR
STARTCHAR Ecaron
ENCODING 282
SWIDTH 706 0
DWIDTH 7 0
BBX 7 11 0 0
BITMAP
38
18
00
FE
DE
E0
F8
D8
E0
DE
FE
ENDCHAR
STARTCHAR ecaron
ENCODING 283
SWIDTH 666 0
DWIDTH 7 0
BBX 6 10 0 0
BITMAP
28
30
00
FC
DC
E0
DC
E0
DC
FC
ENDCHAR
STARTCHAR Gbreve
ENCODING 286
SWIDTH 908 0
DWIDTH 9 0
BBX 9 10 0 0
BITMAP
1C00
0000
3F00
5B80
7600
A000
A280
7680
5A80
3E80
ENDCHAR
STARTCHAR gbreve
ENCODING 287
SWIDTH 827 0
DWIDTH 8 0
BBX 8 9 0 0
BITMAP
3C
00
7E
5E
E4
A7
E7
5F
3F
ENDCHAR
STARTCHAR Gdotaccent
ENCODING 288
SWIDTH 908 0
DWIDTH 9 0
BBX 9 11 0 0
BITMAP
0C00
0C00
0000
3F00
5B80
7600
A000
A280
7680
5A80
3E80
ENDCHAR
STARTCHAR gdotaccent
ENCODING 289
SWIDTH 827 0
DWIDTH 8 0
BBX 8 10 0 0
BITMAP
18
18
00
7E
5E
E4
A7
E7
5F
3F
ENDCHAR
STARTCHAR Gcommaaccent
ENCODING 290
SWIDTH 908 0
DWIDTH 9 0
BBX 9 12 0 -4
BITMAP
3F00
5B80
7600
A000
A280
7680
5A80
2E80
1000
0C00
0C00
0800
ENDCHAR
STARTCHAR gcommaaccent
ENCODING 291
SWIDTH 827 0
DWIDTH 8 0
BBX 8 7 0 0
BITMAP
7E
5E
E4
A7
E7
5F
3F
ENDCHAR
STARTCHAR Hcircumflex
ENCODING 292
SWIDTH 901 0
DWIDTH 9 0
BBX 9 11 0 0
BITMAP
0800
1C00
0000
E380
E380
E380
FF80
DD80
E380
E380
E380
ENDCHAR
STARTCHAR hcircumflex
ENCODING 293
SWIDTH 830 0
DWIDTH 8 0
BBX 8 10 0 0
BITMAP
18
18
04
E5
E5
DD
E5
FD
E5
E5
ENDCHAR
STARTCHAR Hbar
ENCODING 294
SWIDTH 901 0
DWIDTH 9 0
BBX 9 8 0 0
BITMAP
E380
FF80
E380
FF80
DD80
E380
E380
E380
ENDCHAR
STARTCHAR hbar
ENCODING 295
SWIDTH 830 0
DWIDTH 8 0
BBX 8 7 0 0
BITMAP
E5
DD
DD
E5
FD
E5
E5
ENDCHAR
STARTCHAR Itilde
ENCODING 296
SWIDTH 338 0
DWIDTH 3 0
BBX 6 10 -1 0
BITMAP
FC
00
70
70
70
70
70
70
70
70
ENDCHAR
STARTCHAR itilde
ENCODING 297
SWIDTH 337 0
DWIDTH 3 0
BBX 6 9 -1 0
BITMAP
FC
00
70
70
70
70
70
70
70
ENDCHAR
STARTCHAR Imacron
ENCODING 298
SWIDTH 338 0
DWIDTH 3 0
BBX 3 8 0 0
BITMAP
E0
E0
E0
E0
E0
E0
E0
E0
ENDCHAR
STARTCHAR imacron
ENCODING 299
SWIDTH 337 0
DWIDTH 3 0
BBX 3 7 0 0
BITMAP
E0
E0
E0
E0
E0
E0
E0
ENDCHAR
STARTCHAR Ibreve
ENCODING 300
SWIDTH 338 0
DWIDTH 3 0
BBX 3 10 0 0
BITMAP
E0
00
E0
E0
E0
E0
E0
E0
E0
E0
ENDCHAR
STARTCHAR ibreve
ENCODING 301
SWIDTH 337 0
DWIDTH 3 0
BBX 3 9 0 0
BITMAP
E0
00
E0
E0
E0
E0
E0
E0
E0
ENDCHAR
STARTCHAR Iogonek
ENCODING 302
SWIDTH 338 0
DWIDTH 3 0
BBX 3 11 0 -3
BITMAP
E0
E0
E0
E0
E0
E0
E0
E0
60
60
60
ENDCHAR
STARTCHAR iogonek
ENCODING 303
SWIDTH 337 0
DWIDTH 3 0
BBX 3 10 0 -3
BITMAP
E0
E0
E0
E0
E0
E0
E0
60
60
60
ENDCHAR
STARTCHAR Idotaccent
ENCODING 304
SWIDTH 338 0
DWIDTH 3 0
BBX 3 11 0 0
BITMAP
60
60
00
E0
E0
E0
E0
E0
E0
E0
E0
ENDCHAR
STARTCHAR dotlessi
ENCODING 305
SWIDTH 337 0
DWIDTH 3 0
BBX 3 7 0 0
BITMAP
E0
E0
E0
E0
E0
E0
E0
ENDCHAR
STARTCHAR IJ
ENCODING 306
SWIDTH 774 0
DWIDTH 8 0
BBX 7 8 0 0
BITMAP
E6
E6
E6
E6
E6
E6
EE
EE
ENDCHAR
STARTCHAR ij
ENCODING 307
SWIDTH 729 0
DWIDTH 7 0
BBX 7 8 0 -1
BITMAP
EE
EE
EE
EE
EE
EA
F4
0C
ENDCHAR
STARTCHAR Jcircumflex
ENCODING 308
SWIDTH 434 0
DWIDTH 4 0
BBX 4 11 0 0
BITMAP
20
70
00
70
70
70
70
70
70
F0
E0
ENDCHAR
STARTCHAR jcircumflex
ENCODING 309
SWIDTH 393 0
DWIDTH 4 0
BBX 4 11 0 -1
BITMAP
60
60
10
70
70
70
70
70
A0
E0
C0
ENDCHAR
STARTCHAR Kcommaaccent
ENCODING 310
SWIDTH 815 0
DWIDTH 8 0
BBX 8 12 0 -4
BITMAP
E7
EE
EE
DC
DC
EE
EE
E5
00
18
08
18
ENDCHAR
STARTCHAR kcommaaccent
ENCODING 311
SWIDTH 801 0
DWIDTH 8 0
BBX 8 11 0 -4
BITMAP
EB
EE
EC
DC
EC
EE
EB
00
18
08
18
ENDCHAR
STARTCHAR kgreenlandic
ENCODING 312
SWIDTH 801 0
DWIDTH 8 0
BBX 8 7 0 0
BITMAP
EB
EE
EC
DC
EC
EE
EB
ENDCHAR
STARTCHAR Lacute
ENCODING 313
SWIDTH 604 0
DWIDTH 6 0
BBX 6 11 0 0
BITMAP
1C
38
00
E0
E0
E0
E0
E0
E0
DC
FC
ENDCHAR
STARTCHAR lacute
ENCODING 314
SWIDTH 583 0
DWIDTH 6 0
BBX 6 10 0 0
BITMAP
38
60
00
E0
E0
E0
E0
E0
DC
FC
ENDCHAR
STARTCHAR Lcommaaccent
ENCODING 315
SWIDTH 604 0
DWIDTH 6 0
BBX 6 12 0 -4
BITMAP
E0
E0
E0
E0
E0
E0
DC
FC
00
30
10
30
ENDCHAR
STARTCHAR lcommaaccent
ENCODING 316
SWIDTH 583 0
DWIDTH 6 0
BBX 6 11 0 -4
BITMAP
E0
E0
E0
E0
E0
DC
FC
00
30
30
20
ENDCHAR
STARTCHAR Lcaron
ENCODING 317
SWIDTH 856 0
DWIDTH 9 0
BBX 8 9 0 0
BITMAP
03
E3
E3
E0
E0
E0
E0
DC
FC
ENDCHAR
STARTCHAR lcaron
ENCODING 318
SWIDTH 584 0
DWIDTH 6 0
BBX 6 8 0 0
BITMAP
08
E8
E8
E0
E0
E0
DC
FC
ENDCHAR
STARTCHAR Ldot
ENCODING 319
SWIDTH 604 0
DWIDTH 6 0
BBX 6 8 0 0
BITMAP
E0
E0
E0
D8
F8
E0
DC
FC
ENDCHAR
STARTCHAR ldot
ENCODING 320
SWIDTH 582 0
DWIDTH 6 0
BBX 6 7 0 0
BITMAP
E0
E8
E8
E0
E0
DC
FC
ENDCHAR
STARTCHAR Lslash
ENCODING 321
SWIDTH 604 0
DWIDTH 6 0
BBX 7 8 -1 0
BITMAP
70
70
7C
E8
F0
70
6E
7E
ENDCHAR
STARTCHAR lslash
ENCODING 322
SWIDTH 581 0
DWIDTH 6 0
BBX 7 7 -1 0
BITMAP
70
74
6C
F0
F0
6E
7E
ENDCHAR
STARTCHAR Nacute
ENCODING 323
SWIDTH 877 0
DWIDTH 9 0
BBX 8 11 0 0
BITMAP
07
08
00
F3
F3
FB
DD
DD
EB
E7
E7
ENDCHAR
STARTCHAR nacute
ENCODING 324
SWIDTH 787 0
DWIDTH 8 0
BBX 7 10 0 0
BITMAP
0E
18
00
F2
EA
FA
DA
DE
CE
CE
ENDCHAR
STARTCHAR Ncommaaccent
ENCODING 325
SWIDTH 877 0
DWIDTH 9 0
BBX 8 12 0 -4
BITMAP
F3
F3
FB
DD
DD
EB
E7
E7
00
18
08
18
ENDCHAR
STARTCHAR ncommaaccent
ENCODING 326
SWIDTH 787 0
DWIDTH 8 0
BBX 7 11 0 -4
BITMAP
F2
EA
FA
DA
DE
CE
CE
00
18
08
10
ENDCHAR
STARTCHAR Ncaron
ENCODING 327
SWIDTH 877 0
DWIDTH 9 0
BBX 8 11 0 0
BITMAP
14
18
00
F3
F3
FB
DD
DD
EB
E7
E7
ENDCHAR
STARTCHAR ncaron
ENCODING 328
SWIDTH 787 0
DWIDTH 8 0
BBX 7 10 0 0
BITMAP
38
18
00
F2
EA
FA
DA
DE
CE
CE
ENDCHAR
STARTCHAR Eng
ENCODING 330
SWIDTH 874 0
DWIDTH 9 0
BBX 8 11 0 -3
BITMAP
F5
F5
FD
ED
DD
ED
E5
E5
03
05
06
ENDCHAR
STARTCHAR eng
ENCODING 331
SWIDTH 691 0
DWIDTH 7 0
BBX 6 10 0 -3
BITMAP
F4
EC
FC
DC
D4
CC
CC
04
0C
08
ENDCHAR
STARTCHAR Omacron
ENCODING 332
SWIDTH 933 0
DWIDTH 9 0
BBX 9 8 0 0
BITMAP
3F00
5B80
7680
A180
A180
7280
7D00
3E00
ENDCHAR
STARTCHAR omacron
ENCODING 333
SWIDTH 833 0
DWIDTH 8 0
BBX 8 7 0 0
BITMAP
7E
5E
E7
A3
E7
5E
3E
ENDCHAR
STARTCHAR Obreve
ENCODING 334
SWIDTH 933 0
DWIDTH 9 0
BBX 9 10 0 0
BITMAP
1C00
0000
3F00
5B80
7680
A180
A180
7280
7D00
3E00
ENDCHAR
STARTCHAR obreve
ENCODING 335
SWIDTH 833 0
DWIDTH 8 0
BBX 8 9 0 0
BITMAP
3C
00
7E
5E
E7
A3
E7
5E
3E
ENDCHAR
STARTCHAR Ohungarumlaut
ENCODING 336
SWIDTH 933 0
DWIDTH 9 0
BBX 10 11 0 0
BITMAP
1DC0
3200
0000
3F00
5B80
7680
A180
A180
7280
7D00
3E00
ENDCHAR
STARTCHAR ohungarumlaut
ENCODING 337
SWIDTH 833 0
DWIDTH 8 0
BBX 9 10 0 0
BITMAP
1F80
6600
0000
7E00
5E00
E700
A300
E700
5E00
3E00
ENDCHAR
STARTCHAR OE
ENCODING 338
SWIDTH 1317 0
DWIDTH 13 0
BBX 13 8 0 0
BITMAP
3FF8
5D78
7380
A1E0
A160
6380
5D78
3FF8
ENDCHAR
STARTCHAR oe
ENCODING 339
SWIDTH 1174 0
DWIDTH 12 0
BBX 11 7 0 0
BITMAP
7FE0
5EE0
E700
A2E0
E700
5EE0
3FE0
ENDCHAR
STARTCHAR Racute
ENCODING 340
SWIDTH 843 0
DWIDTH 8 0
BBX 8 11 0 0
BITMAP
1C
30
00
FE
FD
E3
DF
E3
DE
E6
E7
ENDCHAR
STARTCHAR Rcommaaccent
ENCODING 342
SWIDTH 843 0
DWIDTH 8 0
BBX 8 12 0 -4
BITMAP
FE
FD
E3
DF
E3
DE
E6
E7
00
18
08
18
ENDCHAR
STARTCHAR rcommaaccent
ENCODING 343
SWIDTH 831 0
DWIDTH 8 0
BBX 8 11 0 -4
BITMAP
FE
FF
E7
FB
DD
EA
E6
00
18
08
10
ENDCHAR
STARTCHAR Rcaron
ENCODING 344
SWIDTH 843 0
DWIDTH 8 0
BBX 8 11 0 0
BITMAP
70
30
00
FE
FD
E3
DF
E3
DE
E6
E7
ENDCHAR
STARTCHAR rcaron
ENCODING 345
SWIDTH 831 0
DWIDTH 8 0
BBX 8 10 0 0
BITMAP
1C
18
00
FE
FF
E7
FB
DD
EA
E6
ENDCHAR
STARTCHAR Sacute
ENCODING 346
SWIDTH 682 0
DWIDTH 7 0
BBX 7 11 0 0
BITMAP
0E
10
00
7E
FC
A0
FC
6C
1E
7C
FC
ENDCHAR
STARTCHAR sacute
ENCODING 347
SWIDTH 683 0
DWIDTH 7 0
BBX 7 10 0 0
BITMAP
0E
10
00
7E
FC
A0
7C
06
7C
FC
ENDCHAR
STARTCHAR Scircumflex
ENCODING 348
SWIDTH 682 0
DWIDTH 7 0
BBX 7 11 0 0
BITMAP
10
38
00
7E
FC
A0
FC
6C
1E
7C
FC
ENDCHAR
STARTCHAR scircumflex
ENCODING 349
SWIDTH 683 0
DWIDTH 7 0
BBX 7 10 0 0
BITMAP
10
38
00
7E
FC
A0
7C
06
7C
FC
ENDCHAR
STARTCHAR Scedilla
ENCODING 350
SWIDTH 682 0
DWIDTH 7 0
BBX 7 12 0 -4
BITMAP
7E
FC
A0
FC
6C
1E
7C
F4
08
70
20
30
ENDCHAR
STARTCHAR scedilla
ENCODING 351
SWIDTH 683 0
DWIDTH 7 0
BBX 7 11 0 -4
BITMAP
7E
FC
A0
7C
06
7C
FC
00
70
20
30
ENDCHAR
STARTCHAR Scaron
ENCODING 352
SWIDTH 682 0
DWIDTH 7 0
BBX 7 11 0 0
BITMAP
28
10
00
7E
FC
A0
FC
6C
1E
7C
FC
ENDCHAR
STARTCHAR scaron
ENCODING 353
SWIDTH 683 0
DWIDTH 7 0
BBX 7 10 0 0
BITMAP
28
10
00
7E
FC
A0
7C
06
7C
FC
ENDCHAR
STARTCHAR Tcommaaccent
ENCODING 354
SWIDTH 591 0
DWIDTH 6 0
BBX 6 11 0 -3
BITMAP
FC
FC
30
30
30
30
30
30
70
40
20
ENDCHAR
STARTCHAR tcommaaccent
ENCODING 355
SWIDTH 588 0
DWIDTH 6 0
BBX 6 10 0 -3
BITMAP
FC
FC
30
30
30
30
30
70
40
20
ENDCHAR
STARTCHAR Tcaron
ENCODING 356
SWIDTH 591 0
DWIDTH 6 0
BBX 6 11 0 0
BITMAP
70
30
00
FC
FC
30
30
30
30
30
30
ENDCHAR
STARTCHAR tcaron
ENCODING 357
SWIDTH 842 0
DWIDTH 8 0
BBX 8 8 0 0
BITMAP
03
FF
FF
30
30
30
30
30
ENDCHAR
STARTCHAR Tbar
ENCODING 358
SWIDTH 591 0
DWIDTH 6 0
BBX 6 8 0 0
BITMAP
FC
FC
30
FC
EC
30
30
30
ENDCHAR
STARTCHAR tbar
ENCODING 359
SWIDTH 588 0
DWIDTH 6 0
BBX 6 7 0 0
BITMAP
FC
FC
30
EC
FC
30
30
ENDCHAR
STARTCHAR Utilde
ENCODING 360
SWIDTH 905 0
DWIDTH 9 0
BBX 9 10 0 0
BITMAP
7F00
0200
E280
E280
E280
E280
E280
7500
5F00
3E00
ENDCHAR
STARTCHAR utilde
ENCODING 361
SWIDTH 795 0
DWIDTH 8 0
BBX 8 9 0 0
BITMAP
7E
00
E7
E7
E7
E7
F6
6A
7C
ENDCHAR
STARTCHAR Umacron
ENCODING 362
SWIDTH 905 0
DWIDTH 9 0
BBX 9 8 0 0
BITMAP
E280
E280
E280
E280
E280
7500
5F00
3E00
ENDCHAR
STARTCHAR umacron
ENCODING 363
SWIDTH 795 0
DWIDTH 8 0
BBX 8 7 0 0
BITMAP
E7
E7
E7
E7
F6
6A
7C
ENDCHAR
STARTCHAR Ubreve
ENCODING 364
SWIDTH 905 0
DWIDTH 9 0
BBX 9 10 0 0
BITMAP
1C00
0000
E280
E280
E280
E280
E280
7500
5F00
3E00
ENDCHAR
STARTCHAR ubreve
ENCODING 365
SWIDTH 795 0
DWIDTH 8 0
BBX 8 9 0 0
BITMAP
38
00
E7
E7
E7
E7
F6
6A
7C
ENDCHAR
STARTCHAR Uring
ENCODING 366
SWIDTH 905 0
DWIDTH 9 0
BBX 9 11 0 0
BITMAP
1C00
1C00
0000
E280
E280
E280
E280
E280
7500
5F00
3E00
ENDCHAR
STARTCHAR uring
ENCODING 367
SWIDTH 795 0
DWIDTH 8 0
BBX 8 10 0 0
BITMAP
18
18
00
E7
E7
E7
E7
F6
6A
7C
ENDCHAR
STARTCHAR Uhungarumlaut
ENCODING 368
SWIDTH 905 0
DWIDTH 9 0
BBX 10 11 0 0
BITMAP
1DC0
3200
0000
E280
E280
E280
E280
E280
7500
5F00
3E00
ENDCHAR
STARTCHAR uhungarumlaut
ENCODING 369
SWIDTH 795 0
DWIDTH 8 0
BBX 9 10 0 0
BITMAP
3B80
7600
0000
E700
E700
E700
E700
F600
6A00
7C00
ENDCHAR
STARTCHAR Uogonek
ENCODING 370
SWIDTH 905 0
DWIDTH 9 0
BBX 9 11 0 -3
BITMAP
E280
E280
E280
E280
E280
7500
5F00
2E00
1800
1800
1800
ENDCHAR
STARTCHAR uogonek
ENCODING 371
SWIDTH 794 0
DWIDTH 8 0
BBX 8 10 0 -3
BITMAP
E7
E7
E7
E7
F6
6A
7C
10
30
30
ENDCHAR
STARTCHAR Ycircumflex
ENCODING 374
SWIDTH 789 0
DWIDTH 8 0
BBX 8 11 0 0
BITMAP
18
38
00
E7
6E
54
3C
2C
18
18
18
ENDCHAR
STARTCHAR ycircumflex
ENCODING 375
SWIDTH 733 0
DWIDTH 7 0
BBX 7 10 0 0
BITMAP
10
38
00
AE
74
7C
2C
38
18
18
ENDCHAR
STARTCHAR Ydieresis
ENCODING 376
SWIDTH 789 0
DWIDTH 8 0
BBX 8 10 0 0
BITMAP
24
00
E7
6E
54
3C
2C
18
18
18
ENDCHAR
STARTCHAR Zacute
ENCODING 377
SWIDTH 854 0
DWIDTH 9 0
BBX 8 11 0 0
BITMAP
07
18
00
FF
FB
0D
1E
6C
F0
7F
FF
ENDCHAR
STARTCHAR zacute
ENCODING 378
SWIDTH 714 0
DWIDTH 7 0
BBX 7 10 0 0
BITMAP
0E
10
04
FA
FE
2C
38
70
DE
BE
ENDCHAR
STARTCHAR Zdotaccent
ENCODING 379
SWIDTH 854 0
DWIDTH 9 0
BBX 8 11 0 0
BITMAP
18
18
00
FF
FB
0D
1E
6C
F0
7F
FF
ENDCHAR
STARTCHAR zdotaccent
ENCODING 380
SWIDTH 714 0
DWIDTH 7 0
BBX 7 10 0 0
BITMAP
10
10
04
FA
FE
2C
38
70
DE
BE
ENDCHAR
STARTCHAR Zcaron
ENCODING 381
SWIDTH 854 0
DWIDTH 9 0
BBX 8 11 0 0
BITMAP
1C
14
08
FF
FB
0D
1E
6C
F0
7F
FF
ENDCHAR
STARTCHAR zcaron
ENCODING 382
SWIDTH 714 0
DWIDTH 7 0
BBX 7 10 0 0
BITMAP
28
18
04
FA
FE
2C
38
70
DE
BE
ENDCHAR
STARTCHAR florin
ENCODING 402
SWIDTH 388 0
DWIDTH 4 0
BBX 4 9 0 -1
BITMAP
70
60
B0
F0
60
60
60
E0
C0
ENDCHAR
STARTCHAR uni01C4
ENCODING 452
SWIDTH 1740 0
DWIDTH 17 0
BBX 17 11 0 0
BITMAP
001E00
000C00
000000
FE7F80
FF7F80
E70780
E39F00
E3BE00
E77800
FF5F80
FE7F80
ENDCHAR
STARTCHAR uni01C5
ENCODING 453
SWIDTH 1601 0
DWIDTH 16 0
BBX 16 10 0 0
BITMAP
0014
0008
FE00
FF7D
E77A
E38E
E39C
E734
FF5F
FE7F
ENDCHAR
STARTCHAR Scommaaccent
ENCODING 536
SWIDTH 682 0
DWIDTH 7 0
BBX 7 12 0 -4
BITMAP
7E
FC
A0
FC
6C
1E
7C
F4
08
30
10
30
ENDCHAR
STARTCHAR scommaaccent
ENCODING 537
SWIDTH 683 0
DWIDTH 7 0
BBX 7 11 0 -4
BITMAP
7E
FC
A0
7C
06
7C
FC
00
30
10
30
ENDCHAR
STARTCHAR uni021A
ENCODING 538
SWIDTH 591 0
DWIDTH 6 0
BBX 6 12 0 -4
BITMAP
FC
FC
30
30
30
30
30
30
00
30
10
20
ENDCHAR
STARTCHAR uni021B
ENCODING 539
SWIDTH 588 0
DWIDTH 6 0
BBX 6 11 0 -4
BITMAP
FC
FC
30
30
30
30
30
00
30
10
20
ENDCHAR
STARTCHAR uni0237
ENCODING 567
SWIDTH 393 0
DWIDTH 4 0
BBX 4 8 0 -1
BITMAP
70
70
70
70
70
A0
E0
C0
ENDCHAR
STARTCHAR circumflex
ENCODING 710
SWIDTH 376 0
DWIDTH 4 0
BBX 3 2 0 8
BITMAP
60
E0
ENDCHAR
STARTCHAR caron
ENCODING 711
SWIDTH 362 0
DWIDTH 4 0
BBX 3 2 0 8
BITMAP
E0
60
ENDCHAR
STARTCHAR breve
ENCODING 728
SWIDTH 360 0
DWIDTH 4 0
BBX 3 1 0 8
BITMAP
E0
ENDCHAR
STARTCHAR dotaccent
ENCODING 729
SWIDTH 255 0
DWIDTH 3 0
BBX 2 2 0 6
BITMAP
C0
C0
ENDCHAR
STARTCHAR ring
ENCODING 730
SWIDTH 330 0
DWIDTH 3 0
BBX 3 2 0 8
BITMAP
E0
E0
ENDCHAR
STARTCHAR ogonek
ENCODING 731
SWIDTH 250 0
DWIDTH 3 0
BBX 2 3 0 -3
BITMAP
C0
C0
C0
ENDCHAR
STARTCHAR tilde
ENCODING 732
SWIDTH 665 0
DWIDTH 7 0
BBX 6 1 0 6
BITMAP
FC
ENDCHAR
STARTCHAR hungarumlaut
ENCODING 733
SWIDTH 837 0
DWIDTH 8 0
BBX 8 2 0 7
BITMAP
37
CC
ENDCHAR
STARTCHAR uni0307
ENCODING 775
SWIDTH 260 0
DWIDTH 3 0
BBX 2 2 0 4
BITMAP
C0
C0
ENDCHAR
STARTCHAR uni030F
ENCODING 783
SWIDTH 554 0
DWIDTH 6 0
BBX 5 4 0 7
BITMAP
F0
D0
48
28
ENDCHAR
STARTCHAR uni0311
ENCODING 785
SWIDTH 375 0
DWIDTH 4 0
BBX 3 1 0 8
BITMAP
E0
ENDCHAR
STARTCHAR uni0326
ENCODING 806
SWIDTH 274 0
DWIDTH 3 0
BBX 2 3 0 -4
BITMAP
C0
40
C0
ENDCHAR
STARTCHAR Omega
ENCODING 937
SWIDTH 92 0
DWIDTH 1 0
BBX 1 1 0 0
BITMAP
00
ENDCHAR
STARTCHAR uni00B5.dup2
ENCODING 956
SWIDTH 802 0
DWIDTH 8 0
BBX 8 8 0 -1
BITMAP
E5
E5
E5
E5
EF
F6
DE
E0
ENDCHAR
STARTCHAR pi
ENCODING 960
SWIDTH 92 0
DWIDTH 1 0
BBX 1 1 0 0
BITMAP
00
ENDCHAR
STARTCHAR endash
ENCODING 8211
SWIDTH 473 0
DWIDTH 5 0
BBX 4 2 0 3
BITMAP
F0
F0
ENDCHAR
STARTCHAR emdash
ENCODING 8212
SWIDTH 615 0
DWIDTH 6 0
BBX 6 2 0 3
BITMAP
FC
FC
ENDCHAR
STARTCHAR quoteleft
ENCODING 8216
SWIDTH 254 0
DWIDTH 3 0
BBX 2 3 0 5
BITMAP
C0
C0
C0
ENDCHAR
STARTCHAR quoteright
ENCODING 8217
SWIDTH 251 0
DWIDTH 3 0
BBX 2 3 0 5
BITMAP
C0
40
C0
ENDCHAR
STARTCHAR quotesinglbase
ENCODING 8218
SWIDTH 252 0
DWIDTH 3 0
BBX 2 3 0 -1
BITMAP
C0
C0
C0
ENDCHAR
STARTCHAR quotedblleft
ENCODING 8220
SWIDTH 535 0
DWIDTH 5 0
BBX 5 3 0 5
BITMAP
D8
D0
D8
ENDCHAR
STARTCHAR quotedblright
ENCODING 8221
SWIDTH 532 0
DWIDTH 5 0
BBX 5 3 0 5
BITMAP
D8
48
D8
ENDCHAR
STARTCHAR quotedblbase
ENCODING 8222
SWIDTH 533 0
DWIDTH 5 0
BBX 5 3 0 -1
BITMAP
D8
D8
D8
ENDCHAR
STARTCHAR dagger
ENCODING 8224
SWIDTH 636 0
DWIDTH 6 0
BBX 6 8 0 0
BITMAP
30
30
DC
30
30
30
30
30
ENDCHAR
STARTCHAR daggerdbl
ENCODING 8225
SWIDTH 648 0
DWIDTH 6 0
BBX 6 8 0 0
BITMAP
38
DC
DC
38
38
DC
DC
38
ENDCHAR
STARTCHAR bullet
ENCODING 8226
SWIDTH 501 0
DWIDTH 5 0
BBX 5 5 0 1
BITMAP
20
50
88
50
20
ENDCHAR
STARTCHAR ellipsis
ENCODING 8230
SWIDTH 676 0
DWIDTH 7 0
BBX 6 2 0 0
BITMAP
F4
F4
ENDCHAR
STARTCHAR perthousand
ENCODING 8240
SWIDTH 447 0
DWIDTH 4 0
BBX 4 9 0 -1
BITMAP
30
30
50
20
60
60
A0
40
C0
ENDCHAR
STARTCHAR guilsinglleft
ENCODING 8249
SWIDTH 465 0
DWIDTH 5 0
BBX 4 5 0 1
BITMAP
10
F0
D0
70
10
ENDCHAR
STARTCHAR guilsinglright
ENCODING 8250
SWIDTH 465 0
DWIDTH 5 0
BBX 4 5 0 1
BITMAP
C0
B0
70
F0
80
ENDCHAR
STARTCHAR fraction
ENCODING 8260
SWIDTH 447 0
DWIDTH 4 0
BBX 4 9 0 -1
BITMAP
30
30
50
20
60
60
A0
40
C0
ENDCHAR
STARTCHAR uni2074
ENCODING 8308
SWIDTH 528 0
DWIDTH 5 0
BBX 5 6 0 2
BITMAP
70
50
B0
40
F8
10
ENDCHAR
STARTCHAR Euro
ENCODING 8364
SWIDTH 781 0
DWIDTH 8 0
BBX 8 8 0 0
BITMAP
3F
6E
70
AC
AC
70
6E
1F
ENDCHAR
STARTCHAR trademark
ENCODING 8482
SWIDTH 1503 0
DWIDTH 15 0
BBX 15 6 0 2
BITMAP
FF8E
FF96
32DE
32EA
33B6
3376
ENDCHAR
STARTCHAR partialdiff
ENCODING 8706
SWIDTH 108 0
DWIDTH 1 0
BBX 1 1 0 0
BITMAP
00
ENDCHAR
STARTCHAR uni2206
ENCODING 8710
SWIDTH 108 0
DWIDTH 1 0
BBX 1 1 0 0
BITMAP
00
ENDCHAR
STARTCHAR product
ENCODING 8719
SWIDTH 521 0
DWIDTH 5 0
BBX 5 7 0 0
BITMAP
70
70
58
D8
78
70
70
ENDCHAR
STARTCHAR summation
ENCODING 8721
SWIDTH 108 0
DWIDTH 1 0
BBX 1 1 0 0
BITMAP
00
ENDCHAR
STARTCHAR minus
ENCODING 8722
SWIDTH 555 0
DWIDTH 6 0
BBX 5 1 0 4
BITMAP
F8
ENDCHAR
STARTCHAR radical
ENCODING 8730
SWIDTH 108 0
DWIDTH 1 0
BBX 1 1 0 0
BITMAP
00
ENDCHAR
STARTCHAR infinity
ENCODING 8734
SWIDTH 108 0
DWIDTH 1 0
BBX 1 1 0 0
BITMAP
00
ENDCHAR
STARTCHAR integral
ENCODING 8747
SWIDTH 362 0
DWIDTH 4 0
BBX 3 9 0 -1
BITMAP
60
60
60
60
60
60
60
E0
C0
ENDCHAR
STARTCHAR approxequal
ENCODING 8776
SWIDTH 665 0
DWIDTH 7 0
BBX 6 4 0 3
BITMAP
FC
00
00
FC
ENDCHAR
STARTCHAR notequal
ENCODING 8800
SWIDTH 473 0
DWIDTH 5 0
BBX 4 9 0 -1
BITMAP
30
30
D0
F0
60
F0
F0
40
C0
ENDCHAR
STARTCHAR lessequal
ENCODING 8804
SWIDTH 108 0
DWIDTH 1 0
BBX 1 1 0 0
BITMAP
00
ENDCHAR
STARTCHAR greaterequal
ENCODING 8805
SWIDTH 108 0
DWIDTH 1 0
BBX 1 1 0 0
BITMAP
00
ENDCHAR
STARTCHAR lozenge
ENCODING 9674
SWIDTH 521 0
DWIDTH 5 0
BBX 5 7 0 0
BITMAP
70
70
58
D8
78
70
70
ENDCHAR
STARTCHAR uniF8FF
ENCODING 63743
SWIDTH 108 0
DWIDTH 1 0
BBX 1 1 0 0
BITMAP
00
ENDCHAR
STARTCHAR uniFB01
ENCODING 64257
SWIDTH 962 0
DWIDTH 10 0
BBX 9 7 0 0
BITMAP
FD80
DD80
E180
DD80
DD80
E180
E180
ENDCHAR
STARTCHAR uniFB02
ENCODING 64258
SWIDTH 1208 0
DWIDTH 12 0
BBX 12 7 0 0
BITMAP
FD80
DD80
E180
DD80
DD80
E170
E1F0
ENDCHAR
STARTCHAR .notdef
ENCODING -1
SWIDTH 108 0
DWIDTH 1 0
BBX 1 1 0 0
BITMAP
00
ENDCHAR
ENDFONT
